<?xml version="1.0" encoding="utf-8"?>
<!-- Generator: Adobe Illustrator 22.0.0, SVG Export Plug-In . SVG Version: 6.00 Build 0)  -->
<svg version="1.1"
	 id="Calque_1" xmlns:cc="http://creativecommons.org/ns#" xmlns:dc="http://purl.org/dc/elements/1.1/" xmlns:inkscape="http://www.inkscape.org/namespaces/inkscape" xmlns:rdf="http://www.w3.org/1999/02/22-rdf-syntax-ns#" xmlns:sodipodi="http://sodipodi.sourceforge.net/DTD/sodipodi-0.dtd" xmlns:svg="http://www.w3.org/2000/svg"
	 xmlns="http://www.w3.org/2000/svg" xmlns:xlink="http://www.w3.org/1999/xlink" x="0px" y="0px" viewBox="0 0 100 125"
	 style="enable-background:new 0 0 100 125;" xml:space="preserve">
<style type="text/css">
	.st0{fill:#FFFFFF;}
</style>
<g transform="translate(0,-952.36218)">
	<path class="st0" d="M56,963.4c-7.4,0-13,2.1-17.7,4.2s-8.4,3.8-12.3,3.8H14.5c-0.9,0-1.7,0.7-1.9,1.6c-1,4.4-1.6,9.7-1.6,15.4
		s0.6,11.1,1.6,15.4c0.2,0.9,1,1.6,1.9,1.6h12.9c8,4.5,12.9,11.8,15.8,18.3c1.5,3.3,2.5,6.3,3.1,8.5c0.3,1.1,0.5,2,0.7,2.6
		c0.1,0.3,0.1,0.5,0.1,0.7s0,0.1,0.1,0.3c0.7,3.2,3.5,5.6,6.9,5.6c3.8,0,7-3.2,7-7v-20h18c5.1,0,9-4.6,9-10c0-2-0.7-3.8-1.6-5.3
		c1.5-1.8,2.6-4,2.6-6.7c0-2.6-1.1-4.9-2.6-6.7c0.4-1,0.6-2.1,0.6-3.3c0-3.4-1.8-6.4-4.4-7.9c0.2-0.7,0.4-1.3,0.4-2.1
		c0-4.8-3.4-9-8-9H56z M56,967.4h19c2.1,0,4,2.1,4,5c0,0.9-0.2,1.7-0.5,2.4c-0.4,1,0,2.2,1,2.6c0.1,0,0.2,0.1,0.3,0.1
		c1.7,0.4,3.2,2.3,3.2,4.9c0,1-0.2,1.9-0.6,2.7c-0.4,0.8-0.2,1.8,0.5,2.4c1.2,1.1,2.1,2.8,2.1,4.9c0,2.1-0.9,3.9-2.2,4.9
		c-0.9,0.7-1,2-0.3,2.8c0,0,0,0,0,0c0.9,1.1,1.5,2.6,1.5,4.2c0,3.5-2.4,6-5,6H59c-1.1,0-2,0.9-2,2v22c0,1.7-1.3,3-3,3
		c-1.5,0-2.7-1-2.9-2.4c0,0.2,0-0.1-0.1-0.3c0-0.2-0.1-0.5-0.2-0.8c-0.1-0.7-0.4-1.7-0.7-2.8c-0.6-2.4-1.7-5.6-3.3-9.1
		c-3.2-7-8.7-15.3-17.9-20.4c-0.3-0.2-0.6-0.3-1-0.2H16.2c-0.7-3.7-1.2-8.1-1.2-13s0.5-9.3,1.2-13H26c5.1,0,9.3-2.2,13.9-4.2
		S49.4,967.4,56,967.4z"/>
</g>
</svg>
