<?xml version="1.0" encoding="utf-8"?>
<!-- Generator: Adobe Illustrator 22.0.0, SVG Export Plug-In . SVG Version: 6.00 Build 0)  -->
<svg version="1.1" id="Calque_1" xmlns="http://www.w3.org/2000/svg" xmlns:xlink="http://www.w3.org/1999/xlink" x="0px" y="0px"
	 viewBox="0 0 1024 1024" style="enable-background:new 0 0 1024 1024;" xml:space="preserve">
<style type="text/css">
	.st0{fill:#FFFFFF;}
	.st1{fill:url(#SVGID_1_);}
	.st2{fill:none;stroke:#FFFFFF;stroke-width:24.7232;stroke-linecap:round;stroke-miterlimit:10;}
	.st3{fill:none;stroke:#FFFFFF;stroke-width:19.0886;stroke-linecap:round;stroke-miterlimit:10;}
	.st4{fill:none;stroke:#FFFFFF;stroke-width:24.0053;stroke-linecap:round;stroke-miterlimit:10;}
	.st5{fill:none;stroke:#FFFFFF;stroke-width:23.374;stroke-linecap:round;stroke-miterlimit:10;}
</style>
<ellipse class="st0" cx="516.9" cy="598.8" rx="183.6" ry="182.6"/>
<linearGradient id="SVGID_1_" gradientUnits="userSpaceOnUse" x1="507.3656" y1="534.9089" x2="655.0231" y2="534.9089">
	<stop  offset="0" style="stop-color:#FFE14B"/>
	<stop  offset="0.2618" style="stop-color:#FFD84A"/>
	<stop  offset="0.6955" style="stop-color:#FFBE49"/>
	<stop  offset="0.9944" style="stop-color:#FFA947"/>
</linearGradient>
<path class="st1" d="M645.5,608.3c-5.3,0-9.6-4.3-9.6-9.5c0-65.2-53.4-118.3-118.9-118.3c-5.3,0-9.6-4.3-9.6-9.5s4.3-9.5,9.6-9.5
	c76.1,0,138.1,61.6,138.1,137.4C655,604.1,650.7,608.3,645.5,608.3z"/>
<path class="st2" d="M506,347.8c0-9,0-126.4,0-126.4"/>
<path class="st3" d="M416.3,365.5c-1.9-5.1-25.9-70.8-25.9-70.8"/>
<path class="st4" d="M338,412.6c-5.5-6.5-77-91.3-77-91.3"/>
<path class="st3" d="M280.7,483.4c-4.7-2.7-65.6-37.7-65.6-37.7"/>
<path class="st3" d="M736.7,474.1c4.7-2.7,65.6-37.7,65.6-37.7"/>
<path class="st5" d="M676.5,405.6c5.2-6.2,73-86.5,73-86.5"/>
<path class="st3" d="M596.4,361.8c1.9-5.1,25.9-70.8,25.9-70.8"/>
</svg>
